<svg xmlns="http://www.w3.org/2000/svg" width="26" height="27" viewBox="0 0 26 27">
  <defs>
    <style>
      .cls-1 {
        fill: #00ffea;
        stroke: #00ffea;
        stroke-linecap: round;
        stroke-linejoin: round;
        stroke-width: 1px;
        fill-rule: evenodd;
      }
    </style>
  </defs>
  <path id="Phone" class="cls-1" d="M5.878,17.829a19.808,19.808,0,0,1-4.508-7.745c-0.545-2.21-1.412-5.3.878-8.673a0.42,0.42,0,0,1,.119-0.072C2.426,1.271,3.588.1,4.243,0.865l4.9,5.53a2.426,2.426,0,0,1,.594,1.823l-0.59.522A3.322,3.322,0,0,1,7.2,9.646c0.027,0.136-1.214.171-1.18,0.308A9.811,9.811,0,0,0,8.871,14.77a18.717,18.717,0,0,1,2.512,2.586,9.426,9.426,0,0,0,4.637,3c0.132,0.036.181-1.243,0.312-1.214a3.511,3.511,0,0,1,.9-2l0.513-.6a2.254,2.254,0,0,1,1.761.633l5.306,5.113c0.731,0.684-.414,1.87-0.481,1.931a0.435,0.435,0,0,1-.071.122c-3.292,2.323-6.282,1.395-8.418.808a19,19,0,0,1-7.458-4.737A12.427,12.427,0,0,0,5.878,17.829Z"/>
</svg>
