<svg xmlns="http://www.w3.org/2000/svg" width="23" height="17" viewBox="0 0 23 17">
  <defs>
    <style>
      .cls-1 {
        fill: #00ffea;
        fill-rule: evenodd;
      }
    </style>
  </defs>
  <path id="quote_m" class="cls-1" d="M2.338,5.13c-1.7,2.544-3.657,7.26-1.007,9.91a4.414,4.414,0,0,0,6.2,0,4.365,4.365,0,0,0-.053-6.2A4.681,4.681,0,0,0,4.511,7.568C3.663,7.462,4.352,4.017,7.373,1.686L6.79,0.944A11.783,11.783,0,0,0,2.338,5.13Zm13.248,0c-1.7,2.544-3.657,7.26-1.007,9.91a4.414,4.414,0,0,0,6.2,0,4.365,4.365,0,0,0-.053-6.2,4.681,4.681,0,0,0-2.968-1.272c-0.848-.106-0.159-3.551,2.862-5.882l-0.583-.742A11.783,11.783,0,0,0,15.587,5.13Z"/>
</svg>
