<svg xmlns="http://www.w3.org/2000/svg" width="711" height="833" viewBox="0 0 711 833">
  <defs>
    <style>
      .cls-1 {
        fill: none;
        stroke: #00ffea;
        stroke-linecap: round;
        stroke-linejoin: round;
        stroke-width: 2px;
        fill-rule: evenodd;
      }
    </style>
  </defs>
  <path id="Kształt_1" data-name="Kształt 1" class="cls-1" d="M0.679,65.745c30.868,10.577,41.424,44,101.02,58.869C195.792,148.091,235.813-4.138,135.129.822,5.171,7.225,47.656,245.764,211.947,186.628c122.543-44.11,150.392-116.395,323.628-111.1C791.837,83.349,703.893,181.568,647.2,229.946s-199.529,96.716-350.114,67.547S53.108,283.191,33.665,350.1C29.5,364.425,14.3,425.022,99.855,443.875s236.612-19.2,316.479-18.84,118.12,46.009,36.529,92.253C383.105,556.825,210.674,470.926,115,558c-69.576,63.321,31.244,68.5,105.154,106.848C247.878,679.234,318,727.067,293,832"/>
</svg>
