<svg xmlns="http://www.w3.org/2000/svg" xmlns:xlink="http://www.w3.org/1999/xlink" preserveAspectRatio="xMidYMid" width="1179.625" height="899" viewBox="0 0 1179.625 899">
  <defs>
    <style>
      .cls-1 {
        stroke: #00ffea;
        stroke-linecap: round;
        stroke-linejoin: round;
        stroke-width: 2px;
        fill: none;
        fill-rule: evenodd;
      }
    </style>
  </defs>
  <path d="M266.625,2.000 C266.625,2.000 239.766,25.909 258.625,44.000 C277.484,62.091 254.766,113.908 105.625,65.999 C-43.516,18.091 -31.234,251.908 139.625,216.000 C310.484,180.091 574.990,190.504 542.625,279.000 C510.260,367.495 629.990,306.504 577.625,424.000 C525.260,541.495 454.990,858.504 733.625,878.999 C1012.260,899.495 1063.990,604.504 1014.625,580.000 C965.260,555.495 991.990,516.504 1024.625,521.000 C1057.260,525.495 1042.990,580.504 1009.625,587.000 C976.260,593.495 960.990,589.504 972.625,613.000 C984.260,636.495 1043.990,640.504 1064.625,612.000 C1085.260,583.495 1052.990,585.504 1033.625,581.000 C1026.260,580.495 1067.990,630.504 1038.625,654.000 C1035.216,656.727 1031.984,658.478 1028.973,659.431 C1006.047,666.693 995.966,627.749 1018.625,622.000 C1044.260,615.495 1068.990,670.504 1035.625,687.000 C1002.260,703.495 1010.990,667.504 1031.625,669.000 C1052.260,670.495 1055.990,676.504 1052.625,696.999 C1049.260,717.495 1057.990,775.504 1058.625,786.000 C1059.260,796.495 1048.990,876.504 1051.625,881.000 C1054.260,885.495 1084.990,894.504 1099.625,897.000 C1114.260,899.495 1042.990,902.504 1037.625,898.000 C1032.260,893.495 1044.990,796.504 1045.625,784.000 C1046.260,771.495 1045.990,700.504 1040.625,699.000 C1035.260,697.495 1023.990,696.504 1023.625,703.000 C1023.260,709.495 1014.990,775.504 1014.625,781.000 C1014.260,786.495 1007.990,895.504 1010.625,897.999 C1013.260,900.495 948.990,899.504 942.625,898.999 C936.260,898.495 988.990,885.504 994.625,880.000 C1000.260,874.495 999.990,785.504 1000.625,776.999 C1001.260,768.495 1015.990,721.504 1014.625,696.000 C1013.260,670.495 1005.990,624.504 988.625,622.000 C971.260,619.495 950.990,643.504 935.625,643.000 C920.260,642.495 903.990,601.504 896.625,594.000 C889.260,586.495 890.990,569.504 892.625,563.000 C894.260,556.495 893.323,573.504 896.625,579.000 C899.927,584.495 901.323,595.837 892.625,595.000 C883.927,594.162 878.990,585.504 876.625,581.000 C874.260,576.495 869.323,562.170 868.625,560.000 C867.927,557.828 865.323,546.504 876.625,555.999 C887.927,565.496 889.656,580.504 895.625,602.000 C901.593,623.495 922.656,648.504 928.625,651.000 C934.593,653.495 955.323,615.504 964.625,601.000 C973.927,586.495 1018.323,609.837 1046.625,593.000 C1052.593,586.495 1051.323,576.171 1074.625,585.999 C1097.927,595.829 1113.657,605.171 1118.625,604.000 C1123.593,602.828 1152.657,558.504 1151.625,555.999 C1150.593,553.495 1149.990,544.837 1153.625,538.000 C1157.260,531.162 1152.657,523.171 1155.625,523.000 C1158.593,522.829 1164.323,537.838 1162.625,538.999 C1160.927,540.162 1156.990,551.171 1165.625,551.999 C1174.260,552.829 1172.656,547.171 1173.625,544.000 C1174.593,540.828 1172.656,533.838 1169.625,532.000 C1168.287,531.189 1164.625,537.000 1164.625,537.000 C1164.625,537.000 1160.697,522.784 1160.625,524.000 C1160.552,525.215 1164.625,514.000 1164.625,514.000 L1179.625,521.999 L1173.625,535.000 C1173.625,535.000 1170.156,530.537 1167.376,532.981 C1162.456,537.307 1156.560,546.473 1161.625,552.999 C1167.886,554.215 1168.625,554.000 1168.625,554.000 L1165.625,564.000 L1156.625,558.000 C1156.625,558.000 1161.172,548.321 1165.625,554.000 C1166.593,556.828 1156.657,559.837 1152.625,565.000 C1148.593,570.162 1130.323,609.504 1119.625,612.000 C1108.927,614.495 1072.656,601.504 1057.625,610.000 C1042.593,618.495 1033.990,609.504 1035.625,602.999 C1037.260,596.495 1051.657,601.837 1046.625,607.000 C1041.593,612.162 1042.990,596.171 1051.625,598.000 C1060.260,599.829 1050.990,616.504 1042.625,615.999 C1034.260,615.495 1013.656,614.838 1018.625,605.000 C1023.593,595.162 1031.990,591.171 1028.625,573.000 C1024.593,561.162 1020.990,558.171 1027.625,555.000 C1034.260,551.829 1030.990,547.838 1026.625,546.000 C1022.260,544.162 1021.990,538.171 1021.625,533.000 C1021.260,527.829 1039.323,528.837 1040.625,540.000 C1041.927,551.162 1047.657,547.504 1048.625,544.000 C1049.593,540.495 1051.323,534.504 1045.625,534.000 C1039.927,533.495 1039.323,538.171 1029.625,533.000 C1019.927,527.829 1003.656,527.504 1000.625,541.000 C997.593,554.495 1014.990,549.837 1014.625,544.000 C1014.260,538.162 1002.656,543.504 1011.625,551.000 C1016.927,554.829 1022.656,564.837 1014.625,565.000 C1020.593,570.495 1033.656,564.837 1034.625,559.000 C1035.593,553.162 1035.657,540.504 1030.625,540.000 C1025.593,539.495 1027.323,547.838 1036.625,543.000 C1045.927,538.162 1043.990,521.171 1030.625,518.000 C1017.260,514.829 1025.625,510.000 1025.625,510.000 C1025.625,510.000 985.323,519.504 981.625,540.000 C977.927,560.495 997.323,560.504 999.625,551.000 C1001.927,541.495 994.323,539.838 991.625,548.000 C988.927,556.162 981.657,558.504 992.625,570.000 C996.927,573.828 1018.990,571.837 1015.625,588.999 C1012.260,606.162 1042.656,648.171 1039.625,689.000 C1047.260,690.495 1051.990,692.504 1053.625,667.000 C1055.260,641.495 1058.656,622.504 1064.625,618.000 C1070.593,613.495 1096.990,587.837 1049.625,579.000 C1032.593,580.162 1040.625,599.999 1040.625,599.999 " class="cls-1"/>
</svg>
