<svg xmlns="http://www.w3.org/2000/svg" width="493" height="268" viewBox="0 0 493 268">
  <defs>
    <style>
      .cls-1 {
        fill: none;
        stroke: #00ffea;
        stroke-linecap: round;
        stroke-linejoin: round;
        stroke-width: 2px;
        fill-rule: evenodd;
      }
    </style>
  </defs>
  <path id="implementation" class="cls-1" d="M0.789,40.071c29.979-5.889,58.937-9.238,82.7-6.216C293.973,60.622,261.566,147.4,158.405,107.532,99.062,84.6,84.723,124.863,135.93,162.479c37.811,27.773,71.3,44.248,101.136,41.208,50.407-5.134,70.052-11.946,117.366,4.995,24.266,8.69,6.906,15.707,64.448,1.4,21.192-5.271,40.754-6.8,50.421-8.89,19.845-4.288,30.1,1.79,18.729,11.239-6.624,5.5-34.709,18.276-60.179,24.989-18.244,4.809-38.285,17.174-47.2,17.469-21.358.708-36.921-1.531-82.406,7.493-41.336,8.2-75.569,4.465-88.649-7.493-38.839-35.507,62.561-69.39,146.084-68.682,23.59,0.708,45.081-14.445,48.694-5S365.8,206.727,340.7,214.926s-19.845-31.926-8.74-62.438,0.132-58.151-28.718-62.439c-17.612-4.288-22.474-14.986-22.474-14.986s7.624,69.224,34.96,72.428,43.833-35.672,39.955-53.7-26.088-45.663-11.238-68.682,35.093-6.952,62.429-23.727c3.614,31.927-22.342,69.223-39.954,74.926-23.856,21.937-57.3,81.711-58.683,127.374s-48.563,66.727-141.09,43.707C97.49,230.065,41.93,207.687.816,238.448"/>
</svg>
