<svg xmlns="http://www.w3.org/2000/svg" width="412" height="966" viewBox="0 0 412 966">
  <defs>
    <style>
      .cls-1 {
        fill: none;
        stroke: #00ffea;
        stroke-linecap: round;
        stroke-linejoin: round;
        stroke-width: 1px;
        fill-rule: evenodd;
      }
    </style>
  </defs>
  <path id="Kształt_2_kopia_2" data-name="Kształt 2 kopia 2" class="cls-1" d="M0,21S17,77,71,77,126,1,63,1-10,116,79,127c97.006,11.989,197.162-115.617,307-50,77,46-36,185-194,132S-12.386,251.983,22,299c49,67,147,0,219-15s112,49,65,77-114.494-60.444-158-7c-13,15.97-12.434,47.16,15,58,30.863,12.195,172,36.768,172,134,0,76.232-82.34,74.768-141,101s-57,81-57,81H66V862H80s7-1.87,16-16,16-24,16-24l20,6,48-54,30,6,59-47H75V876H180s35.329,3.464,38-26-32-33.87-45-22-16.671,30.464-8,44,36.663,21.8,54,2,17.329-55.536-24-65c-26.329-5.8-42,22.464-45,38s0,21,0,21H81s10-2.2,20-19c11.671-17.464,14-20,14-20l20,6,48-54,27,7,69-55h9V871H232s-20.5-1.452-27,6c-6,6.87-2.671,13.8,4,21s35,44,35,44,5,6.13,11,1,3.329-6.87,0-12-34-46-34-46-2-6.145-13,8c-31.25,40.2-59.471,24.791-117,18-51.011-6.022-77.893,16.184-92.31,54.183"/>
</svg>
