<svg xmlns="http://www.w3.org/2000/svg" width="206" height="32" viewBox="0 0 206 32">
  <path id="logo_kresky" data-name="logo kresky" d="M472.42,580V568h6.01v12Zm-26.355,0-14.038-14.024V566l-2-2,2-2v.023L446.065,548h8.493l-16.016,16,16.016,16Zm-21.535,0V570h6.01v10Zm-34.035,0v-6h18.018s4,0,4-4-4-4-4-4H400.5s-10.01,0-10.01-9,10.01-9,10.01-9h18.018v6H400.5s-4,0-4,3,4,3,4,3h8.008s10.01,0,10.01,10-10.01,10-10.01,10Zm-34.034,0v-6h28.03v6Zm-14.5,0-14.014-14h-5.521v-6h18.018s4,0,4-3-4-3-4-3H322.426v-6h18.018s10.011,0,10.011,9-10.011,9-10.011,9h-4l14.014,14Zm-32.032,0L295.89,565.976V566l-2-2,2-2v.023L309.928,548h8.493l-16.016,16,16.016,16ZM288,580V570h6.01v10Zm68.46-14v-6h28.03v6Zm120.4-9.365L485.506,548H494l-12.892,12.879ZM456.842,548h8.493l8.645,8.636-4.246,4.243ZM424.53,558V548h6.01v10ZM288,558V548h6.01v10Zm68.46-4v-6h28.03v6Z" transform="translate(-288 -547.999)" fill="#0c3c3a"/>
</svg>
