<svg xmlns="http://www.w3.org/2000/svg" width="360" height="188" viewBox="0 0 360 188">
  <defs>
    <style>
      .cls-1 {
        fill: #f5f5f6;
      }

      .cls-2, .cls-3, .cls-4 {
        fill: none;
        stroke: #fff;
        stroke-linecap: round;
        stroke-linejoin: round;
      }

      .cls-2 {
        stroke-width: 2px;
      }

      .cls-2, .cls-3, .cls-4, .cls-5 {
        fill-rule: evenodd;
      }

      .cls-3 {
        stroke-width: 1px;
      }

      .cls-4 {
        stroke-width: 3px;
      }

      .cls-5 {
        fill: #0c3c3a;
      }
    </style>
  </defs>
  <rect id="map" class="cls-1" width="360" height="188"/>
  <path id="Kształt_99" data-name="Kształt 99" class="cls-2" d="M140,189s9.061-11.984,10-13,1.561-2.984,3-5,16-23,16-23l17-19"/>
  <path id="Kształt_100" data-name="Kształt 100" class="cls-3" d="M186,129l11-16s1.311-19.859,1-22,0.311-5.234-6-8a118.765,118.765,0,0,0-15-5H167l-8-2-9-3-3-4-21-7,1-8s-3.939-5.359-5-6-7.314-3.609-9-6-10-12-10-12l-6-8L87,14,82,8,69-1H93l7,17s11.436,12.516,15,17c5.689,4.484,8,6,8,6s14.186,2.266,14,4,1.561,10.766,1,12,6.686,0.891,8,2,6.686,4.516,9,5,6-1,6-1"/>
  <path id="Kształt_101" data-name="Kształt 101" class="cls-3" d="M146,69l8-6"/>
  <path id="Kształt_102" data-name="Kształt 102" class="cls-3" d="M152,65a29,29,0,0,1,2,9"/>
  <path id="Kształt_103" data-name="Kształt 103" class="cls-3" d="M179,16L153,3l1-3"/>
  <path id="Kształt_104" data-name="Kształt 104" class="cls-3" d="M162-1l18,9"/>
  <path id="Kształt_105" data-name="Kształt 105" class="cls-3" d="M179,0l-7,13"/>
  <path id="Kształt_106" data-name="Kształt 106" class="cls-3" d="M177-1l24,11,5-10"/>
  <path id="Kształt_107" data-name="Kształt 107" class="cls-3" d="M206,56l23-46,6-10"/>
  <path id="Kształt_108" data-name="Kształt 108" class="cls-3" d="M217-1s3.061,7.391,5,8,7,4,7,4l14,2s9.561,2.641,12,4,10,5,10,5l11-8"/>
  <path id="Kształt_109" data-name="Kształt 109" class="cls-3" d="M278,0s-6.314,9.141-6,12c3.189,2.234,17,8,17,8l28,28-7,21,8,5h11s7.561,1.016,11,0c0.814,2.234,1,3,1,3l21,4"/>
  <path id="Kształt_110" data-name="Kształt 110" class="cls-3" d="M327,79l9,2,2-4-1-2a3.217,3.217,0,0,0,2-2"/>
  <path id="Kształt_111" data-name="Kształt 111" class="cls-3" d="M341,77h-3"/>
  <path id="Kształt_112" data-name="Kształt 112" class="cls-3" d="M327,78H317V74"/>
  <path id="Kształt_113" data-name="Kształt 113" class="cls-3" d="M318,78s-4.189,8.266-4,9-0.439,5.766-5,7c-2.311.609-3-1-3-1a22.084,22.084,0,0,0-1,3c-0.311,1.359-.439,7.766-18,4s-39-20-39-20l11-2,7-10,8-6,28-28"/>
  <path id="Kształt_114" data-name="Kształt 114" class="cls-3" d="M254,17L265,0"/>
  <path id="Kształt_115" data-name="Kształt 115" class="cls-3" d="M250,0l-7,13"/>
  <path id="Kształt_116" data-name="Kształt 116" class="cls-3" d="M223,6l4-7"/>
  <path id="Kształt_117" data-name="Kształt 117" class="cls-3" d="M219,2l3-4"/>
  <path id="Kształt_118" data-name="Kształt 118" class="cls-3" d="M253,10l4,2"/>
  <path id="Kształt_119" data-name="Kształt 119" class="cls-3" d="M132,21a54.773,54.773,0,0,1,3-13,61.38,61.38,0,0,0,3-9h6s-3.814,8.641-5,14-2,12-2,12"/>
  <path id="Kształt_120" data-name="Kształt 120" class="cls-3" d="M102,9s10.936,13.016,19,16a62.746,62.746,0,0,1-6,8"/>
  <path id="Kształt_121" data-name="Kształt 121" class="cls-3" d="M107,24l-4,6"/>
  <path id="Kształt_122" data-name="Kształt 122" class="cls-3" d="M108,77l12-17"/>
  <path id="Kształt_123" data-name="Kształt 123" class="cls-3" d="M78,55s9.561,2.641,16,3,18-2,18-2"/>
  <path id="Kształt_124" data-name="Kształt 124" class="cls-3" d="M80,64H97l3-2,10,1,5,4s7.686,4.016,9,4,13,1,13,1V56"/>
  <path id="Kształt_125" data-name="Kształt 125" class="cls-2" d="M137,71v9l7,15"/>
  <path id="Kształt_126" data-name="Kształt 126" class="cls-3" d="M167,79s-6.814,20.141-9,21"/>
  <path id="Kształt_127" data-name="Kształt 127" class="cls-3" d="M95,65l16,7,8,3,7,5"/>
  <path id="Kształt_128" data-name="Kształt 128" class="cls-3" d="M89,58l-2,6"/>
  <path id="Kształt_129" data-name="Kształt 129" class="cls-3" d="M96,66l-3,4L88,81"/>
  <path id="Kształt_130" data-name="Kształt 130" class="cls-3" d="M67,75l6,2,14,4,18,7,13,8"/>
  <path id="Kształt_131" data-name="Kształt 131" class="cls-3" d="M108,78l-3,9"/>
  <path id="Kształt_132" data-name="Kształt 132" class="cls-3" d="M104,76L99,86"/>
  <path id="Kształt_133" data-name="Kształt 133" class="cls-3" d="M101,81l10,5,3,3,1,5"/>
  <path id="Kształt_134" data-name="Kształt 134" class="cls-3" d="M109,89l1-3"/>
  <path id="Kształt_135" data-name="Kształt 135" class="cls-3" d="M175,153l-6,10s-0.314,1.266,2,3,12.561,8.641,12,9,0,4,0,4l-3,5"/>
  <path id="Kształt_136" data-name="Kształt 136" class="cls-3" d="M156,167l32,23,12-18"/>
  <path id="Kształt_137" data-name="Kształt 137" class="cls-3" d="M193,165l-3,3-16-12"/>
  <path id="Kształt_138" data-name="Kształt 138" class="cls-3" d="M206,176s-2.689,6.766-2,8,4.686,1.641,6,4,4,1,4,1l3-5"/>
  <path id="Kształt_139" data-name="Kształt 139" class="cls-3" d="M210,176l3-3,10-1a48.623,48.623,0,0,1,4-5c1.064-.891,3.061-8.609,4-9s4-6,4-6l3-1s-1.689-6.609-2-8,6-12,6-12l9,2-5,12s1.936,19.016,2,21"/>
  <path id="Kształt_140" data-name="Kształt 140" class="cls-3" d="M239,164l6-9"/>
  <path id="Kształt_141" data-name="Kształt 141" class="cls-3" d="M247,155s-7.439-2.234-9-4"/>
  <path id="Kształt_72" data-name="Kształt 72" class="cls-2" d="M58,97s7.832-21.609,9-23,8.082-11.109,9-13,2.832-10.109,4-11,5.582-10.109,6-12,12.582-17.109,14-19a191.774,191.774,0,0,1,6-19S57.082-5.109,55-2c-1.582,3.359-1.168,8.641-3,9-5.832,11.609-6,13-6,13s-3.668,18.891-3,22-2.418,8.141,18,14c13.668,4.859,63,29,63,29s17.832,11.141,27,12c7.918,3.859,15.832,7.891,20,14,8.168,9.609,8.332,12.891,16,18,12.418,7.859,31.582,18.391,39,25,8.668,7.359,15,12,15,12s21.082,1.641,26,0"/>
  <path id="Kształt_73" data-name="Kształt 73" class="cls-2" d="M228,190l13-24"/>
  <path id="Kształt_74" data-name="Kształt 74" class="cls-2" d="M54,7s9.832,6.391,12,7S86.832,26.891,90,31c6.168,7.359,15.082,18.641,16,22,4.168,3.859,15.832,7.641,19,9,2.918,1.359,1.582,13.141,2,15-0.582,3.109-2,8-2,8l-7,15v6"/>
  <path id="Kształt_75" data-name="Kształt 75" class="cls-3" d="M35,188s4.457-15.776,9-22c0.877-5.891.123-20.276-1-24-0.957-6.224-3.21-17.443-3-22s0.457-12.609,10-27a57.52,57.52,0,0,0,4-8s15.957,0.391,19,3c4.876,4.109,8,5,8,5s12.79,0.224,14,1c-0.29,1.943-7.21,11.391-7,13s-0.876.891-4,2a6.671,6.671,0,0,0-4,4l1,7-3,9-8-2s-0.543,9.891,1,11,8-4,8-4l1,6s-6.543,6.224-6,7,1,4,1,4l-6,3H56s-8.876-.109-10,0-2.543,1.224-4,1-8,1-8,1l-6,2-10-2-6,15s9.061,0.516,11,1c2.689,0.734,4,1,4,1l4-3-5-5s-8.689-2.609-11-3"/>
  <path id="Kształt_76" data-name="Kształt 76" class="cls-3" d="M23,172s2.061-7.484,3-7"/>
  <path id="Kształt_77" data-name="Kształt 77" class="cls-3" d="M31,170l9,3"/>
  <path id="Kształt_78" data-name="Kształt 78" class="cls-3" d="M69,168c-0.311-.016-4,0-4,0s-5.064,3.016-9,3-8.689-5.359-12-6"/>
  <path id="Kształt_79" data-name="Kształt 79" class="cls-3" d="M43,168a6.215,6.215,0,0,1-4-2,30.86,30.86,0,0,1-2-3,46.177,46.177,0,0,1-5-1c-1.686-.516-2.689.016-3-3"/>
  <path id="Kształt_80" data-name="Kształt 80" class="cls-3" d="M29,160l15-3"/>
  <path id="Kształt_81" data-name="Kształt 81" class="cls-3" d="M34,159s-1.064-9.609-1-11,0-5,0-5-2.064-10.734-1-12c0.939-1.391,2-3,2-3H46l7,3s0.436,9.266,1,11,3,12,3,12"/>
  <path id="Kształt_82" data-name="Kształt 82" class="cls-3" d="M73,156l47,18"/>
  <path id="Kształt_83" data-name="Kształt 83" class="cls-3" d="M110,153l-6,14"/>
  <path id="Kształt_84" data-name="Kształt 84" class="cls-3" d="M75,147l31,2"/>
  <path id="Kształt_87" data-name="Kształt 87" class="cls-3" d="M73,128s0.186-5.359,1-5,5,0,5,0"/>
  <path id="Kształt_88" data-name="Kształt 88" class="cls-3" d="M55,146H44"/>
  <path id="Kształt_89" data-name="Kształt 89" class="cls-3" d="M23,147s0.686-7.109,1-8,1-5,1-5,23.936-.859,27-2"/>
  <path id="Kształt_90" data-name="Kształt 90" class="cls-3" d="M23,141l19-1"/>
  <path id="Kształt_91" data-name="Kształt 91" class="cls-3" d="M73,100V97s-2.939-2.984-3-4,2-5,2-5"/>
  <path id="Kształt_92" data-name="Kształt 92" class="cls-3" d="M50,93l5,3h5"/>
  <path id="Kształt_93" data-name="Kształt 93" class="cls-3" d="M119,108s0.061,8.016,1,11c1.064,2.984.686,1.766,2,2s4-3,4-3,0.686-9.984,1-11a22.527,22.527,0,0,0,1-7c-0.186-2.641,3-10,3-10"/>
  <path id="Kształt_94" data-name="Kształt 94" class="cls-3" d="M129,97l10,4s1.311,1.266-1,6-7,17-7,17"/>
  <path id="Kształt_95" data-name="Kształt 95" class="cls-3" d="M125,119l6,5,14,7a13.45,13.45,0,0,1,4,3c1.189,1.609,7,14,7,14l8,8"/>
  <path id="Kształt_96" data-name="Kształt 96" class="cls-3" d="M152,140l16-7,4-1"/>
  <path id="Kształt_97" data-name="Kształt 97" class="cls-3" d="M145,131s4.936-9.109,6-10,4-3,4-3l10-4,5-4"/>
  <path id="Kształt_98" data-name="Kształt 98" class="cls-3" d="M165,115l7,18s4.686,4.891,6,6,16.436,9.766,18,10,1.811,1.391,6-3c0.439-2.516,1.311-6.984,2-7s3-7,3-7,0.686-.734-2-3-11-10-11-10"/>
  <path id="Kształt_85" data-name="Kształt 85" class="cls-3" d="M90,148l-4,13"/>
  <path id="Kształt_86" data-name="Kształt 86" class="cls-3" d="M75,152l12,5"/>
  <path id="Kształt_63" data-name="Kształt 63" class="cls-4" d="M98-1s41.427,28.9,43,29,30.427,6.9,33,8c1.913,0.819,62.141,41.9,134.566,75.11C329.545,120.729,353.492,133.959,362,139"/>
  <path id="Kształt_67" data-name="Kształt 67" class="cls-2" d="M335,34l7-13s7.873-6.776,11-8,9-3,9-3"/>
  <path id="Kształt_68" data-name="Kształt 68" class="cls-2" d="M336,22l4-5,15-5"/>
  <path id="Kształt_64" data-name="Kształt 64" class="cls-4" d="M338,1s-4.24,50.232-5,57-3.573,10.9-4,17-25.573,45.9-30,51-26,27-26,27l-5,16-2,9-6,11"/>
  <path id="Kształt_65" data-name="Kształt 65" class="cls-2" d="M292,102s16.195,1.688,26-6c1.243,0.187,1,1,1,1s-0.493,14.063,5,21c-6.07.562-20.868,6.313-26,10C299.805,124.437,301.437,113.562,292,102Z"/>
  <path id="Kształt_66" data-name="Kształt 66" class="cls-2" d="M305,108s-3.055-4.437,2-6c3.305-.938,5.445,3.5,4,6"/>
  <path id="Kształt_66_kopia" data-name="Kształt 66 kopia" class="cls-2" d="M313.531,106.281s4.437-3.055,6,2c0.938,3.306-3.5,5.445-6,4"/>
  <path id="Kształt_66_kopia_2" data-name="Kształt 66 kopia 2" class="cls-2" d="M313.628,115.773s1.542,5.162-3.749,5.094c-3.433-.124-4.1-5.006-1.96-6.94"/>
  <path id="Kształt_69" data-name="Kształt 69" class="cls-4" d="M185,0s-11.668,31.141-12,34c-1.332,12.609-2,16-2,16s-9.668,11.391-10,13-2.168,13.891-3,17-7,18-7,18-25.168,56.891-26,62-10.668,24.891-11,29"/>
  <path id="Kształt_70" data-name="Kształt 70" class="cls-4" d="M167,190s-16.418-11.859-18-13-17-14-17-14l-22-9L92,125s-5.418-14.859-16-23c-7.332-5.391-17-6-17-6v13l8,30s5.082,49.891,5,52"/>
  <path id="Kształt_71" data-name="Kształt 71" class="cls-4" d="M47,189L12,178a34.209,34.209,0,0,1,17-33c4.418-1.391,37-5,37-5s4.582-1.859,11-5,16-10,16-10,12.332-10.609,14-12,9.332-6.359,11-6,19,0,19,0,14.832,4.641,16,7c3.168,7.359,12.832,30.141,14,31s60,45,60,45"/>
  <path id="Kształt_66_kopia_2-2" data-name="Kształt 66 kopia 2" class="cls-2" d="M304.982,115.784s-5.162,1.542-5.094-3.749c0.124-3.433,5.006-4.1,6.94-1.96"/>
  <path id="map_pin" data-name="map pin" class="cls-5" d="M139,58s-5.821-8.131-5.821-11.642a5.33,5.33,0,0,1,4.853-5.716,1.219,1.219,0,0,1,.483-0.106c0.172,0,.32.027,0.485,0.035,0.165-.008.313-0.035,0.485-0.035a1.219,1.219,0,0,1,.483.106,5.33,5.33,0,0,1,4.853,5.716C144.821,49.869,139,58,139,58Zm0-13.906a2.531,2.531,0,1,0,2.531,2.531A2.531,2.531,0,0,0,139,44.094Z"/>
</svg>
