<svg xmlns="http://www.w3.org/2000/svg" width="25.225" height="26.138" viewBox="0 0 25.225 26.138">
  <path id="Phone_kopia_3" data-name="Phone kopia 3" d="M214.878,1611.829a19.807,19.807,0,0,1-4.508-7.745c-.545-2.21-1.412-5.3.878-8.673.028-.041.081-.043.119-.072.06-.068,1.222-1.235,1.878-.474l4.9,5.53a2.426,2.426,0,0,1,.594,1.823l-.59.522c-.047.041-1.159,1.022-1.947.907.027.136-1.214.172-1.18.308a9.811,9.811,0,0,0,2.854,4.815,18.716,18.716,0,0,1,2.512,2.586,9.427,9.427,0,0,0,4.636,3c.132.036.181-1.243.312-1.214-.1-.814.86-1.95.9-2l.513-.6a2.254,2.254,0,0,1,1.761.633l5.306,5.113c.731.684-.414,1.87-.481,1.931-.029.039-.031.093-.071.122-3.292,2.323-6.282,1.395-8.418.808a19,19,0,0,1-7.458-4.737A12.428,12.428,0,0,0,214.878,1611.829Z" transform="translate(-209.343 -1594.093)" fill="#00ffea" stroke="#00ffea" stroke-linecap="round" stroke-linejoin="round" stroke-width="1"/>
</svg>
