<svg xmlns="http://www.w3.org/2000/svg" width="363" height="354" viewBox="0 0 363 354">
  <defs>
    <style>
      .cls-1 {
        fill: none;
        stroke: #00ffea;
        stroke-linecap: round;
        stroke-linejoin: round;
        stroke-width: 2px;
        fill-rule: evenodd;
      }
    </style>
  </defs>
  <path id="analyze" class="cls-1" d="M353.066,214.241c0.215,1.836,7.828.813,8.257,3.3,1.788,10.377-3.128,27.669-11.559,28.059-61.466,2.847-82.316,1.314-87.52,3.3-12.551,4.793,49.628,74.922,51.473,85.458s-0.406,18.174-12.956,18.661-19.12-26.326-35.989-48.808c-31.265-26.787-10.482-44.987,0-38.759s5.053,34.4-27.351,15.79c-24.009-13.789-.156-46.474,48.944-44.355,31.408,1.355,45.234-22.648,45.234-22.648s2.319,3.4-.522-44.536c-2.666-44.984-4.319-130.633-4.319-130.633L227.344,97.5,185.6,77.4l-74.856,87.568L77.632,154.92s-4.724,8.126-27.351,41.629S-7.706,208.982,4.215,218.082c16.24,34.94,21.188,31.094,103.647,25.84s92.206,25.352,129.559-7.178c45.511-35.88,13.99-95.231-44.626-78.953S134.808,277.417,202.872,269.76c106.931,0,93.165-138.295,18.714-137.809-103.242,3.358-92.131,84.7-92.131,84.7L1.336,215.211s9.672,12.433,14.4-67.469S2.775,2.755,2.775,2.755L356.184,1.319S338.716,43.9,344.88,108.983,344.19,138.536,353.066,214.241Z"/>
</svg>
