<svg xmlns="http://www.w3.org/2000/svg" width="24.918" height="25.934" viewBox="0 0 24.918 25.934">
  <path id="Be" d="M1625.741,9290.479h-18.289c-2.179,0-2.952-.8-2.952-3.042v-18.271c0-3.282.855-4.621,2.952-4.621h18.539c2.531,0,3.427,1.079,3.427,4.122v18.77C1629.418,9289.6,1628.353,9290.479,1625.741,9290.479Zm-2.236-15.957a4.89,4.89,0,0,0-5.139,5.027,4.6,4.6,0,0,0,1.42,3.42,5.259,5.259,0,0,0,3.8,1.376,5.4,5.4,0,0,0,3.4-.979,4.082,4.082,0,0,0,1.565-2.369l-3.451-.23a1.531,1.531,0,0,1-2.553.728,2.452,2.452,0,0,1-.315-1.322h6.319l0-.147c0-.172.006-.293.006-.391a4.764,4.764,0,0,0-5.057-5.111Zm-16.718-3.033v12.663h6.03c1.883,0,3.13-.373,3.707-1.11a4,4,0,0,0,.867-2.518,2.827,2.827,0,0,0-2.458-2.95,2.726,2.726,0,0,0,1.59-1.054,2.931,2.931,0,0,0,.534-1.711,3.355,3.355,0,0,0-.919-2.311,3.79,3.79,0,0,0-2.922-1.01ZM1621,9272v2h5v-2Zm-8.739,9.329h-1.893v-2.3h1.763a1.516,1.516,0,0,1,1.173.368,1.183,1.183,0,0,1,.322.8,1.113,1.113,0,0,1-.331.783A1.366,1.366,0,0,1,1612.262,9281.33Zm12.588-3.015h-2.625c0-1.071.442-1.614,1.313-1.614a1.363,1.363,0,0,1,.93.329,1.71,1.71,0,0,1,.382,1.284Zm-12.682-1.978h-1.8V9274.2h1.735c.862,0,1.3.356,1.3,1.059a1.153,1.153,0,0,1-.277.732A1.175,1.175,0,0,1,1612.169,9276.338Z" transform="translate(-1604.5 -9264.545)" fill="#00ffea"/>
</svg>
