<svg xmlns="http://www.w3.org/2000/svg" width="524" height="276" viewBox="0 0 524 276">
  <defs>
    <style>
      .cls-1 {
        fill: none;
        stroke: #00ffea;
        stroke-linecap: round;
        stroke-linejoin: round;
        stroke-width: 2px;
        fill-rule: evenodd;
      }
    </style>
  </defs>
  <path id="BG_SHAPE_kontakt" data-name="BG SHAPE kontakt" class="cls-1" d="M436.052,87.258s-5.024-12.4,5.63-13.127c29.629,5.525,13.117,21.562,9.383,24.378s-5.858,14.687-6.881,30.629-3.981,14.687-8.757,13.752c1.9-25.521-17.118-51.78-15.013-62.508s-11.7-9.484-14.388-11.877c-6.861-7.185-2.313-8.65-.625-13.752s6.444-4.065,5,1.876-13.573,5.935-11.26-6.877S426.669,31,426.669,31s-5.233,3.018,3.128,5,9.571,12.6,3.753,15.627-6.9-2.19-3.753-1.876,3.108,8.228,2.5,11.877-8.778,7.185-12.511,3.751c5.024-.1,1.44-6.358-1.877-8.751-5.61-4.685,1.649-8.024,1.877-4.376s-10.654,6.56-8.758-1.876,12.074-8.232,18.141-5,6.444,0.31,10.009.625,2.482,4.06,1.876,6.251-4.19,4.477-5-2.5-12.114-7.607-11.885-4.375,0.4,6.978,3.127,8.126,4.777,3.644.626,5.626-1.9,3.852.626,11.251c2.1,11.359-3.148,13.853-6.256,20s9.781,6.561,15.013,6.876,11.032-10.108,5.63-11.252-6.275,8.853-3.128,5.626-5.858-6.566-6.881-2.5,4.359,9.686,13.762,4.376,32.092,2.81,38.784,1.25,18.121-26.152,20.643-29.379,8.738-5.108,8.132-6.876c-2.786-3.549-5.63,2.5-5.63,2.5l5.63,3.751,1.876-6.251s-0.462.135-4.378-.625c-3.169-4.08.52-9.809,3.6-12.513,1.739-1.529,3.909,1.261,3.909,1.261L523,38.5l-9.383-5s-2.547,7.01-2.5,6.251,2.5,8.126,2.5,8.126,2.291-3.632,3.128-3.125c1.9,1.149,3.108,5.518,2.5,7.5s0.4,5.518-5,5-2.939-7.4-1.877-8.125-2.522-10.108-4.379-10,1.023,5.1-1.251,9.377-1.9,9.686-1.251,11.252-17.535,29.271-20.643,30S471.9,84.651,457.32,78.506s-13.781.31-17.515,4.376c-17.7,10.525-45.475-4.065-51.294,5s-18.786,32.814-22.52,31.254-16.909-17.193-20.642-30.629-4.816-22.818-11.886-28.754-5.441,1.143-5,2.5,3.525,10.311,5,13.127,4.568,8.227,10.009,8.751,4.567-6.566,2.5-10-1.479-14.067-2.5-10-2.1,14.686,2.5,19.377,14.785,30.314,24.4,30.63,22.291-14.693,33.154-13.128,15.41,30.314,16.264,46.256-8.36,45.316-8.758,50.632-0.228,60.942-3.753,64.384-36.509,11.56-32.528,11.876,44.185,0.935,42.537-.625,2.274-69.7,2.5-73.134,5.4-44.7,5.63-48.757,7.278-3.441,10.634-2.5,3.525,45.315,3.128,53.132-8.361,68.443-5,71.259,47.939,0.934,38.784-.626-28.378-7.19-30.026-10,4.776-52.822,4.379-59.382-5.858-42.821-3.753-55.633-0.229-16.567-13.137-17.5-18.369,21.563,2.5,11.252,5.4-44.7-10.634-40.631c-14.174,3.594-7.868,27.937,6.473,23.4a18.963,18.963,0,0,0,6.038-3.4c18.369-14.687-7.735-45.946-3.128-45.63,12.114,2.815,32.3,1.559,19.392,19.377s-50.272,15.311-57.55.625,2.274-12.192,23.145-16.252,29.8-38.445,9.383-41.255-37.135,21.562-6.255,36.88S273.392,287.65,128.139,257.651C-48.579,221.155-30.2,102.911,122,56c82.309-25.369,24-55,24-55"/>
</svg>
