<svg xmlns="http://www.w3.org/2000/svg" width="1896" height="900" viewBox="0 0 1896 900">
  <defs>
    <style>
      .cls-1 {
        fill: none;
        stroke: #00ffea;
        stroke-linecap: round;
        stroke-linejoin: round;
        stroke-width: 2px;
        fill-rule: evenodd;
      }
    </style>
  </defs>
  <path id="BG_SHAPE_kontakt" data-name="BG SHAPE kontakt" class="cls-1" d="M827,2s-26.859,23.909-8,42-3.859,69.909-153,22S529.141,251.909,700,216s435.36-25.5,403,63,87.36,27.5,35,145-122.64,434.5,156,455,330.36-274.5,281-299-22.64-63.5,10-59,18.36,59.5-15,66-48.64,2.5-37,26,71.36,27.5,92-1-11.64-26.5-31-31c-7.36-.5,34.36,49.5,5,73a30.355,30.355,0,0,1-9.65,5.432c-22.93,7.262-33.01-31.683-10.35-37.432,25.63-6.5,50.36,48.5,17,65s-24.64-19.5-4-18,24.36,7.5,21,28,5.36,78.5,6,89-9.64,90.5-7,95,33.36,13.5,48,16-56.64,5.5-62,1,7.36-101.5,8-114,0.36-83.5-5-85-16.64-2.5-17,4-8.64,72.5-9,78-6.64,114.5-4,117-61.64,1.5-68,1,46.36-13.5,52-19,5.36-94.5,6-103,15.36-55.5,14-81-8.64-71.5-26-74-37.64,21.5-53,21-31.64-41.5-39-49-5.64-24.5-4-31,0.7,10.5,4,16,4.7,16.838-4,16-13.64-9.5-16-14-7.3-18.829-8-21-3.3-13.5,8-4,13.03,24.5,19,46,27.03,46.5,33,49,26.7-35.5,36-50,53.7,8.838,82-8c5.97-6.5,4.7-16.829,28-7s39.03,19.171,44,18,34.03-45.5,33-48-1.64-11.162,2-18-0.97-14.829,2-15,8.7,14.838,7,16-5.64,12.171,3,13,7.03-4.829,8-8-0.97-10.162-4-12c-1.34-.811-5,5-5,5s-3.93-14.216-4-13,4-10,4-10l15,8-6,13s-3.47-4.463-6.25-2.018c-4.92,4.325-10.81,13.491-5.75,20.018,6.26,1.215,7,1,7,1l-3,10-9-6s4.55-9.679,9-4c0.97,2.829-8.97,5.837-13,11s-22.3,44.5-33,47-46.97-10.5-62-2-23.64-.5-22-7,16.03-1.162,11,4-3.64-10.829,5-9-0.64,18.5-9,18-28.97-1.162-24-11,13.36-13.829,10-32c-4.03-11.838-7.64-14.829-1-18s3.36-7.162-1-9-4.64-7.829-5-13,17.7-4.162,19,7,7.03,7.5,8,4,2.7-9.5-3-10-6.3,4.171-16-1-25.97-5.5-29,8,14.36,8.838,14,3-11.97-.5-3,7c5.3,3.829,11.03,13.838,3,14,5.97,5.5,19.03-.162,20-6s1.03-18.5-4-19-3.3,7.838,6,3,7.36-21.829-6-25-5-8-5-8-40.3,9.5-44,30,15.7,20.5,18,11-5.3-11.162-8-3-9.97,10.5,1,22c4.3,3.829,26.36,1.837,23,19s27.03,59.171,24,100c7.64,1.5,12.36,3.5,14-22s5.03-44.5,11-49,32.36-30.163-15-39c-17.03,1.162-9,21-9,21"/>
</svg>
