<svg xmlns="http://www.w3.org/2000/svg" width="1896" height="1492" viewBox="0 0 1896 1492">
  <defs>
    <style>
      .cls-1 {
        fill: none;
        stroke: #00ffea;
        stroke-linecap: round;
        stroke-linejoin: round;
        stroke-width: 2px;
        fill-rule: evenodd;
      }
    </style>
  </defs>
  <path id="BG_SHAPE" data-name="BG SHAPE" class="cls-1" d="M0.353,596.3c16.074,20.555,44.242,39.151,93.6,41.7,116.244,6,36.686-237,208.91-303S432.143,388.9,568,378c87.238-7,107.335-117.4,24-124-180.659-14.31-78.187,298.121,171.709,185,166.753-75.485,191.362-114.436,434.831-107,360.15,11,459.53,244,329.84,316-91.58,50.848-144.03-45.2-345.83-121C966.915,446,728.676,466.172,652,613c-23.545,45.086-54.6,126.753,71.452,112.613,105.6-11.846,152.612-15.912,199.369-2.275C969.159,736.853,968.561,767.1,919,811c-53.711,47.574-248.272,120.779-323,128s7.281,37.339-27,74c-15.281,23.66-114.225,6.66-117.957-32.771S457.888,915,457.888,915l-214.016.869s10.706,39.433,7.845,87.841S243,1044.59,243,1044.59l77.586,0.87s-6.729-49.281,55.792-51.316c45.086-.295,53.423,83.5-11.332,83.5-41.218,4.64-41.6-57.98-6.1-67.84s54.585,26.1,27.025,47.83c-22.621,19.71-28.523,1.17-78.458,4.35s-52.932,5.52-62.767-15.65c-7.219-5.52,14.194,7.25,27.9-13.05s16.563-25.22,16.563-25.22l20.05,6.09L354.585,961.1l25.28,12.176,60.2-35.4s1,51.89,2.616,79.147C444.4,1046.06,443,1054,443,1054s-8.373,4.54-27.393,3.72c-29.734-1.28-44.178,18.52-29.639,26.87,19.623,11.28,22.911-5.79,16.563-9.56s-18.933,7.25,0,23.48c10.216,13.62,14.194,29.87,21.794,29.57s8.963-4.92,7.846-11.31S393.4,1067.9,401,1065c3.152-1.2,11.96.01,49.182-1.72,6.33-.29-0.508-19.2,5.818-19.28,46.176-.61,127.647,17.95,110,43-34.282,51.66,133.281,14.34,91-23-74.068-65.411,4.491-68.725,70-82,33.558-6.8,116.59-6.066,119-1-5.341,5.486-8.678,32.59-45,38-18.877,2.81-41.719,50.34-14,54s147,32,147,32,36.281-49.66,39-50-22.719,74.34-29,72-77-25-77-25,96.281-44.66,95-51,31.281-52.661,27-55-144-16-144-16l12-20s-14.719-5.661-26,12-34.719,39.84-56,75c9.718-5.34,28-2,28-2l28-34s77.281,13.34,127-11c0.385-3.006,7,4,7,4l-21-62s8.948-1.994,8-10-9-11-9-11l-1-7-2,8s-8.052,4.006-8,9,2.281,10.672,8,11c-1.615,6.994-18,64-18,64l6-35-6-4s32.281,5.672,78-1,129.61-38.661,182-32c168.58,21.435,142.62,90.93,60,59-47.53-18.366-59.01,13.88-18,44,30.28,22.24,57.11,35.43,81,33,40.37-4.11,56.11-9.57,94,4,19.43,6.96,5.53,12.58,51.62,1.12,16.97-4.22,32.64-5.45,40.38-7.12,15.89-3.43,24.11,1.43,15,9-5.31,4.41-27.8,14.64-48.2,20.01-14.61,3.85-30.66,13.75-37.8,13.99-17.11.57-29.57-1.23-66,6-33.11,6.57-60.52,3.58-71-6-31.11-28.43,50.11-55.57,117-55,18.89,0.57,36.11-11.57,39-4s-30.89,20.43-51,27-15.89-25.57-7-50,0.11-46.567-23-50c-14.11-3.434-18-12-18-12s6.11,55.43,28,58,35.11-28.567,32-43-20.89-36.567-9-55,28.11-5.567,50-19c2.89,25.567-17.89,55.433-32,60-19.11,17.566-45.89,65.43-47,102s-38.89,53.43-113,35-83.16,29.84-29,63,116.84,70.84,260,4,235.41-124.14,144,70c-145.5,309.01-345.12,147.67-425,109s-117.12-62.83-154,53-158.123,16.17-190,10-50.123,27.17-36,44,11,28,11,28"/>
</svg>
