<svg xmlns="http://www.w3.org/2000/svg" width="359" height="354" viewBox="0 0 359 354">
  <defs>
    <style>
      .cls-1 {
        fill: none;
        stroke: #00ffea;
        stroke-linecap: round;
        stroke-linejoin: round;
        stroke-width: 2px;
        fill-rule: evenodd;
      }
    </style>
  </defs>
  <path id="design" class="cls-1" d="M118.763,109.945c-7.168,12.77-12.679,55.44-72.658,64.373-31.172,4.641-68.89,83.087-23.118,89.129S265.73,316.264,265.73,316.264s59.912-81.966,64.4-82.527-37.515,122.7-47.888,118.841-127.151-41.265-127.151-41.265S314.083,237.6,311.967,227.135s51.655-86.92,44.586-90.781-237.79-26.408-237.79-26.408l19.816-33.012s-24.305-9.343-42.934,19.808S38.313,162.5,3.171,220.533c16.048-8.813,46.237-3.3,46.237-3.3L97.3,151.21s119.359,49.664,208.066-8.253c0.636-4.961,11.559,6.6,11.559,6.6L282.243,47.225s14.776-3.292,13.211-16.506-14.862-18.156-14.862-18.156L278.941,1.009l-3.3,13.2s-13.3,6.611-13.21,14.855,3.767,17.616,13.21,18.157c-2.666,11.543-29.724,105.634-29.724,105.634l9.908-57.769-9.908-6.6S273.626,91.2,313.8,87.167c-8.831,5.167-11.736,7.924-11.736,7.924"/>
</svg>
