<svg xmlns="http://www.w3.org/2000/svg" width="27" height="27" viewBox="0 0 27 27">
  <defs>
    <style>
      .cls-1 {
        fill: #00ffea;
        stroke: #00ffea;
        stroke-linecap: round;
        stroke-linejoin: round;
        stroke-width: 1px;
        fill-rule: evenodd;
      }
    </style>
  </defs>
  <path id="Fb" class="cls-1" d="M23.567,26.313H17.5A0.67,0.67,0,0,0,17.6,26V16.747h3.655v-4.34H17.6V11a1.92,1.92,0,0,1,1.827-2h1.827V6.312c0-1.864.152-.844,0-1.687H16.687A4.768,4.768,0,0,0,12.375,9v3.406H9.656v4.34h2.719V25a2.292,2.292,0,0,0,.314,1.313H3.5c-2.151,0-2.92-.8-2.92-3.043V4c0-2.209.77-3.25,2.92-3.25H23.567c2.16,0,2.933.764,2.933,2.9V23.27C26.5,25.51,25.727,26.313,23.567,26.313Z"/>
</svg>
