<svg xmlns="http://www.w3.org/2000/svg" width="114.702" height="17.823" viewBox="0 0 114.702 17.823">
  <path id="logo_big_kopia_2" data-name="logo big kopia 2" d="M121.669,8041.82v-5.57h3.34v5.57Zm-37.9,0v-3.34H99.38v3.34Zm-38.12,0v-5.57h3.34v5.57Zm88.011,0-7.817-7.809v.012l-1.114-1.112,1.114-1.114v.012l7.817-7.809h4.729l-8.917,8.91,8.917,8.909Zm-30.944,0v-3.342h10.033a2.227,2.227,0,1,0,0-4.454h-4.458s-5.574,0-5.574-5.011,5.574-5.011,5.574-5.011h10.033v3.34H108.292s-2.23,0-2.23,1.671,2.23,1.671,2.23,1.671h4.458s5.574,0,5.574,5.568-5.574,5.568-5.574,5.568Zm-27.024,0-7.8-7.8H64.815v-3.34H74.85s2.228,0,2.228-1.671-2.228-1.671-2.228-1.671H64.815V8024H74.85s5.572,0,5.572,5.011-5.572,5.011-5.572,5.011H72.62l7.8,7.8Zm-17.837,0-7.817-7.809v.012l-1.114-1.112,1.114-1.114v.012L57.857,8024h4.731l-8.919,8.91,8.919,8.909Zm90.483-.006v-6.68h3.34v6.68Zm-64.569-7.79v-3.34H99.38v3.34Zm67.04-5.213,4.813-4.809h4.729l-7.179,7.17ZM139.662,8024h4.731l4.813,4.809-2.365,2.361Zm-17.993,5.572V8024h3.34v5.57Zm-76.019,0V8024h3.34v5.57Zm38.12-2.23V8024H99.38v3.34Z" transform="translate(-45.65 -8023.998)" fill="#0c3c3a"/>
</svg>
