<svg xmlns="http://www.w3.org/2000/svg" width="26" height="26" viewBox="0 0 26 26">
  <defs>
    <style>
      .cls-1 {
        fill: #00ffea;
        fill-rule: evenodd;
      }
    </style>
  </defs>
  <path id="Phone_kopia_5" data-name="Phone kopia 5" class="cls-1" d="M5.878,17.827a19.8,19.8,0,0,1-4.508-7.744c-0.545-2.21-1.412-5.3.878-8.674a0.429,0.429,0,0,1,.119-0.072C2.426,1.271,3.588.1,4.243,0.864l4.9,5.53a2.426,2.426,0,0,1,.594,1.824l-0.59.522A3.326,3.326,0,0,1,7.2,9.645c0.027,0.136-1.214.172-1.18,0.308a9.815,9.815,0,0,0,2.854,4.815,18.655,18.655,0,0,1,2.512,2.586,9.425,9.425,0,0,0,4.636,3c0.132,0.037.181-1.243,0.312-1.213a3.512,3.512,0,0,1,.9-2l0.513-.6a2.253,2.253,0,0,1,1.761.633l5.306,5.113c0.731,0.684-.414,1.869-0.481,1.931a0.425,0.425,0,0,1-.071.121c-3.292,2.324-6.282,1.4-8.418.808a19,19,0,0,1-7.458-4.736A12.445,12.445,0,0,0,5.878,17.827Z"/>
</svg>
