<svg xmlns="http://www.w3.org/2000/svg" width="26.001" height="27.011" viewBox="0 0 26.001 27.011">
  <path id="insta_kopia" data-name="insta kopia" d="M257.948,4517.009H240.029a4,4,0,0,1-4.04-3.941V4494.1a4.076,4.076,0,0,1,4.04-4.1h17.919a4.077,4.077,0,0,1,4.041,4.1v18.967A4,4,0,0,1,257.948,4517.009ZM248,4504h2v1a2,2,0,0,0,2,2h5a2,2,0,0,0,2-2v-4a2,2,0,0,0-2-2h-5a2,2,0,0,0-2,2v1h-2v-1a2,2,0,0,0-2-2h-5a2,2,0,0,0-2,2v4a2,2,0,0,0,2,2h5a2,2,0,0,0,2-2v-1Zm8,1h-3a1,1,0,0,1-1-1h2a1,1,0,0,0,1-1l-1-1h-2a1,1,0,0,1,1-1h3a1,1,0,0,1,1,1v2A1,1,0,0,1,256,4505Zm-11,0h-3a1,1,0,0,1-1-1v-2a1,1,0,0,1,1-1h3a1,1,0,0,1,1,1h-1a1,1,0,0,0,0,2h1A1,1,0,0,1,245,4505Z" transform="translate(-235.989 -4489.999)" fill="#00ffea"/>
</svg>
