<svg xmlns="http://www.w3.org/2000/svg" width="359" height="275" viewBox="0 0 359 275">
  <defs>
    <style>
      .cls-1 {
        fill: none;
        stroke: #00ffea;
        stroke-linecap: round;
        stroke-linejoin: round;
        stroke-width: 1px;
        fill-rule: evenodd;
      }
    </style>
  </defs>
  <path id="design_kopia_2" data-name="design kopia 2" class="cls-1" d="M0.283,263.158C43.449,243.959,77.183,218.939,52,214c-30.34-5.95-35.837-39.654-6.971-56.589C70.324,142.571,96.262,136.538,108,133c25.134-7.576,30.678-27.112,32-28-4.542,8.114-16.192,36.172-48.691,41.6-3.926.655-8.021,3.147-11.832,6.748C64.17,167.809,51.7,197.908,76.663,203.232c28.608,6.1,153.787,33.561,153.787,33.561s37.957-52.083,40.8-52.439-23.768,77.966-30.339,75.513-80.555-26.22-80.555-26.22,103.726-46.84,102.386-53.488c3.409-8.4,24.226-44.98,28.246-57.684C286.51,120.022,141.341,98.7,141.341,98.7L149.9,84.719S134.5,78.782,122.7,97.3,91.264,140.123,69,177c18.667-10.1,26,5,26,5l25-44s79.359,25.472,135.558-11.329c0.4-3.153,7.323,4.2,7.323,4.2L240.912,65.841s9.361-2.092,8.369-10.488-9.415-11.537-9.415-11.537l-1.047-7.341-2.092,8.391s-8.424,4.2-8.369,9.439,2.386,11.193,8.369,11.537c-1.689,7.335-18.831,67.122-18.831,67.122l6.277-36.707-6.277-4.2s17.556,1.722,43.005-.84c-5.595,3.283-5.435,6.035-5.435,6.035S308.134,115.757,327,64,282.468-23.326,205,20C153.747,48.665,53.6,84.751.69,31"/>
</svg>
