<svg xmlns="http://www.w3.org/2000/svg" width="302" height="211" viewBox="0 0 302 211">
  <defs>
    <style>
      .cls-1 {
        fill: none;
        stroke: #00ffea;
        stroke-linecap: round;
        stroke-linejoin: round;
        stroke-width: 1px;
        fill-rule: evenodd;
      }
    </style>
  </defs>
  <path id="implementation" class="cls-1" d="M0.231,210.494c21.887-49.7,83.176-19.091,131.438-7.119S204.28,187.75,205,164,216.557,59.743,239,44c9.187-2.966,29.6-25.969,27.714-42.575-10.592,12.391-34.821,20.368-42.567,32.34s3.838,46.347,5.861,55.722-6.582,29.6-20.84,27.928c-4.185-.489,1.122-8.443-5.057-12.72-14.443-10-13.178-44.951-13.178-44.951s2.536,5.564,11.722,7.794c10.448,3.83,27.571,21.805,17.979,36.474C211.389,118.153,209.906,183.265,223,179s34.292-12.133,32.407-17.048-13.094,2.967-25.4,2.6C186.443,164.182,122.742,181.533,143,200c6.822,6.219,21.44,9.265,43,5,23.725-4.693,26.86-.632,38-1,4.649-.154,34.136-10.312,43.652-12.813,13.285-3.492,27.934-10.134,31.389-13,5.93-4.915.582-8.076-9.769-5.846-5.042,1.087-15.135,2.374-26.3,4.624C235.959,182.41,232.258,180.2,219,178c-29.012-4.811-15.6-8.75-42-10-15.894-.753-41.891-8.345-61.613-22.79-26.709-19.564-19.23-40.506,11.723-28.578,53.808,20.736,70.712-24.4-39.075-38.32-18.665-2.367-43.472,2.78-66.989,8.637C14.228,88.647,7.519,90.4,1.1,92.056"/>
</svg>
