<svg xmlns="http://www.w3.org/2000/svg" width="158" height="24.348" viewBox="0 0 158 24.348">
  <path id="logo_" data-name="logo " d="M402.234,1955.673,391.468,1945v.019l-1.535-1.522,1.535-1.522V1942l10.767-10.67h6.514L396.464,1943.5l12.284,12.173Zm-42.622,0v-4.565h13.819a3.043,3.043,0,1,0,0-6.087H367.29s-7.678,0-7.678-6.848,7.678-6.848,7.678-6.848h13.819v4.566H367.29s-3.071,0-3.071,2.282,3.071,2.282,3.071,2.282h6.142s7.678,0,7.678,7.609-7.678,7.609-7.678,7.609Zm-37.225,0-10.749-10.651H307.4v-4.566h13.819s3.071,0,3.071-2.282-3.071-2.282-3.071-2.282H307.4v-4.566h13.819s7.678,0,7.678,6.848-7.678,6.848-7.678,6.848h-3.071l10.749,10.651Zm-24.568,0L287.052,1945v.019l-1.536-1.522,1.536-1.522V1942l10.767-10.67h6.514L292.049,1943.5l12.284,12.173Zm124.631,0v-9.13h4.61v9.13Zm-36.73,0v-7.61h4.61v7.61Zm-52.21,0v-4.56h21.5v4.56Zm-52.51,0v-7.61h4.61v7.61Zm52.51-10.641v-4.569h21.5v4.569Zm92.344-7.133,6.63-6.571H439l-9.888,9.8Zm-15.355-6.571h6.514l6.63,6.571-3.257,3.228Zm-24.78,7.615v-7.61h4.61v7.61Zm-104.72,0v-7.61h4.61v7.61Zm52.51-3.04v-4.57h21.5v4.57Z" transform="translate(-281 -1931.325)" fill="#0c3c3a"/>
</svg>
