<svg xmlns="http://www.w3.org/2000/svg" width="11.642" height="17.463" viewBox="0 0 11.642 17.463">
  <path id="map_pin" data-name="map pin" d="M319,1771h0c-.058-.082-5.82-8.187-5.82-11.641a5.841,5.841,0,0,1,1.217-3.815,5.6,5.6,0,0,1,3.592-1.9,1.248,1.248,0,0,1,.527-.112c.163,0,.326,0,.485.011s.322-.011.485-.011a1.247,1.247,0,0,1,.527.112,5.6,5.6,0,0,1,3.592,1.9,5.841,5.841,0,0,1,1.217,3.815c0,3.453-5.762,11.559-5.82,11.641Zm0-13.91a2.53,2.53,0,1,0,2.531,2.53A2.533,2.533,0,0,0,319,1757.09Z" transform="translate(-313.178 -1753.537)" fill="#0c3c3a"/>
</svg>
