<svg xmlns="http://www.w3.org/2000/svg" width="32" height="22" viewBox="0 0 32 22">
  <defs>
    <style>
      .cls-1 {
        fill: #00ffea;
        fill-rule: evenodd;
      }
    </style>
  </defs>
  <path id="quote" class="cls-1" d="M3.759,6.3C1.391,9.857-1.348,16.443,2.353,20.144a6.165,6.165,0,0,0,8.659,0,6.1,6.1,0,0,0-.074-8.659A6.537,6.537,0,0,0,6.793,9.709c-1.184-.148-0.222-4.958,4-8.215L9.975,0.458A16.455,16.455,0,0,0,3.759,6.3Zm18.5,0c-2.368,3.552-5.106,10.139-1.406,13.839a6.165,6.165,0,0,0,8.659,0,6.1,6.1,0,0,0-.074-8.659,6.537,6.537,0,0,0-4.144-1.776c-1.184-.148-0.222-4.958,4-8.215L28.477,0.458A16.455,16.455,0,0,0,22.26,6.3Z"/>
</svg>
