<svg xmlns="http://www.w3.org/2000/svg" width="1662" height="1239" viewBox="0 0 1662 1239">
  <defs>
    <style>
      .cls-1 {
        fill: none;
        stroke: #00ffea;
        stroke-linecap: round;
        stroke-linejoin: round;
        stroke-width: 2px;
        fill-rule: evenodd;
      }
    </style>
  </defs>
  <path id="BG_SHAPE" data-name="BG SHAPE" class="cls-1" d="M1.353,346.3c16.074,20.555,44.242,39.15,93.6,41.7C211.2,394,131.643,151,303.866,85S433.143,138.9,569,128c87.238-7,107.335-117.4,24-124C412.341-10.31,514.813,302.121,764.709,189,931.462,113.514,956.071,74.563,1199.54,82c360.15,11,459.53,244,329.84,316-91.58,50.849-144.03-45.2-345.83-121C967.915,196,729.676,216.172,653,363c-23.545,45.085-54.6,126.753,71.452,112.613,105.6-11.846,152.611-15.912,199.369-2.275C970.159,486.853,969.561,517.1,920,561c-53.711,47.574-248.272,120.779-323,128s7.281,37.339-27,74c-15.281,23.66-114.225,6.661-117.957-32.771S458.888,665,458.888,665l-214.016.869s10.706,39.433,7.845,87.842S244,794.588,244,794.588l77.586,0.869s-6.729-49.279,55.792-51.313c45.086-.295,53.423,83.493-11.332,83.493-41.218,4.639-41.6-57.976-6.1-67.838s54.585,26.1,27.025,47.834c-22.621,19.709-28.523,1.165-78.458,4.349s-52.932,5.514-62.767-15.655c-7.219-5.513,14.194,7.253,27.9-13.046S290.2,758.06,290.2,758.06l20.05,6.088L355.585,711.1l25.28,12.175,60.2-35.4s1,51.89,2.616,79.144C445.4,796.063,444,804,444,804s-8.373,4.542-27.393,3.721c-29.734-1.283-44.178,18.519-29.639,26.873,19.623,11.278,22.911-5.792,16.563-9.566s-18.933,7.253,0,23.482c10.216,13.621,14.194,29.866,21.794,29.571s8.963-4.923,7.846-11.306S394.4,817.9,402,815c3.152-1.205,11.96,0,49.182-1.72,6.33-.293-0.508-19.2,5.818-19.28,46.176-.608,127.647,17.95,110,43-34.282,51.66,133.281,14.339,91-23-74.068-65.411,4.491-68.725,70-82,33.558-6.8,116.59-6.066,119-1-5.341,5.486-8.678,32.588-45,38-18.877,2.812-41.719,50.339-14,54s147,32,147,32,36.281-49.66,39-50-22.719,74.34-29,72-77-25-77-25,96.281-44.66,95-51,31.281-52.661,27-55-144-16-144-16l12-20s-14.719-5.66-26,12-34.719,39.839-56,75c9.718-5.34,28-2,28-2l28-34s77.281,13.34,127-11c0.385-3.006,7,4,7,4l-21-62s8.948-1.994,8-10-9-11-9-11l-1-7-2,8s-8.052,4-8,9,2.281,10.673,8,11c-1.615,6.994-18,64-18,64l6-35-6-4s32.281,5.672,78-1,129.61-38.661,182-32c168.58,21.435,142.62,90.926,60,59-47.53-18.366-59.01,13.878-18,44,30.28,22.241,57.11,35.433,81,33,40.37-4.112,56.11-9.567,94,4,19.43,6.959,5.53,12.578,51.62,1.12,16.97-4.221,32.64-5.447,40.38-7.119,15.89-3.434,24.11,1.433,15,9-5.31,4.408-27.8,14.635-48.2,20.011-14.61,3.851-30.66,13.752-37.8,13.989-17.11.566-29.57-1.226-66,6-33.11,6.567-60.52,3.575-71-6-31.11-28.434,50.11-55.567,117-55,18.89,0.566,36.11-11.567,39-4s-30.89,20.433-51,27-15.89-25.567-7-50,0.11-46.567-23-50c-14.11-3.434-18-12-18-12s6.11,55.433,28,58,35.11-28.566,32-43-20.89-36.567-9-55,28.11-5.567,50-19c2.89,25.566-17.89,55.433-32,60-19.11,17.566-45.89,65.433-47,102s-38.89,53.433-113,35-83.16,29.843-29,63,116.84,70.843,260,4,235.41-124.144,144,70c-145.5,309.011-345.12,147.671-425,109s-117.12-62.83-154,53-158.123,16.17-190,10-50.123,27.17-36,44,11,28,11,28"/>
</svg>
